<?xml version="1.0" encoding="utf-8"?>
<!-- Generator: Adobe Illustrator 26.0.3, SVG Export Plug-In . SVG Version: 6.00 Build 0)  -->
<svg version="1.1" id="Calque_1" xmlns="http://www.w3.org/2000/svg" xmlns:xlink="http://www.w3.org/1999/xlink" x="0px" y="0px"
	 viewBox="0 0 595.28 841.89" style="enable-background:new 0 0 595.28 841.89;" xml:space="preserve">
<style type="text/css">
	.st0{fill:#F2CBA8;}
	.st1{fill:#5F89C7;}
	.st2{fill:none;stroke:#000000;stroke-width:7;stroke-miterlimit:10;}
	.st3{fill:none;stroke:#000000;stroke-width:5;stroke-linecap:round;stroke-miterlimit:10;}
	.st4{fill:none;stroke:#000000;stroke-width:5;stroke-miterlimit:10;}
</style>
<path class="st0" d="M408.8,423.36c0.82-1.29,1.46-2.78,0.76-4.22c-0.5-1.45-2.08-2.21-3.58-2.18c-0.47-0.37-0.99-0.64-1.55-0.83
	c-1.57-1.29-3.73-1.51-5.71-1.27c-2.44,0.15-4.82,0.68-7.18,1.27c-0.06,0.02-0.13,0.04-0.19,0.05c-0.33-0.19-0.69-0.33-1.07-0.42
	c-2.02-0.52-4.05,0.31-6.02,0.7c-0.03,0.01-0.06,0.01-0.09,0.02c-1.52-0.75-3.15,0.07-4.7,0.42c-1.16,0.32-2.3,0.66-3.45,1
	c-1.45,0.33-2.9,0.67-4.35,1c-0.14-1.08-0.91-2.13-1.92-2.49c-1.11-0.42-2.31-0.41-3.5-0.25c-0.4-0.67-1.04-1.2-1.83-1.4
	c-2.21-0.35-4.39,0.84-6.52,1.32c-1.14,0.33-2.28,0.69-3.42,1.05c-0.1-0.04-0.19-0.09-0.29-0.12c-0.57-0.1-1.13-0.08-1.69,0
	c0,0,0,0,0,0c-0.01,0-0.02,0.01-0.03,0.01c-0.54,0.08-1.07,0.23-1.61,0.4c-0.15-1.21-0.91-2.34-2.31-2.71
	c-1.33-0.29-2.66,0.13-3.94,0.57c-0.31-0.23-0.66-0.41-1.06-0.51c-0.53-0.13-1.05-0.11-1.56-0.01c-2.28-0.5-4.44,1.38-6.4,1.94
	c-0.93,0.37-1.87,0.74-2.8,1.11c-0.08-0.03-0.16-0.07-0.25-0.1c-2.12-0.77-4.39-0.05-6.59,0.54c-0.44-0.45-0.98-0.8-1.59-0.96
	c-1.16-0.23-2.29,0.01-3.41,0.32c-0.38-1.01-1.17-1.89-2.16-2.26c-1.48-0.7-3.09-0.08-4.56,0.33c-1.61,0.45-3.18,1-4.73,1.62
	c-0.11,0-0.21-0.01-0.32-0.01c-0.51,0.01-0.99,0.12-1.46,0.28c-0.01,0-0.02-0.01-0.03-0.01c-0.84-0.87-2.06-1.4-3.28-1.3
	c-1.19-0.23-2.44-0.26-3.65-0.31c-9.64-0.21-19.28,0.5-28.9,1.06c-5.78,0.39-11.59,0.75-17.36,1.38c-0.12,0-0.24,0-0.36,0
	c-2.53,0-5.06,0.02-7.59,0.08c-0.41-1.37-1.34-2.6-2.59-3.3c-2.61-1.33-5.52-1.41-8.41-1.23c-2.71-1.19-5.78-0.96-8.65-0.52
	c-0.35,0.05-0.69,0.11-1.04,0.16c-2.53-0.31-5.46,0.23-8.08,0.86c-1.37-0.66-3.07-0.87-4.74-0.49c-0.36-0.06-0.74-0.09-1.16-0.08
	c-0.27,0.02-0.55,0.07-0.85,0.13c-0.62-0.09-1.25-0.07-1.85,0.07c-0.74,0.15-1.43,0.44-2.09,0.8c-0.64,0.13-1.3,0.36-1.93,0.73
	c-0.06,0.03-0.11,0.07-0.17,0.1c-1.78-0.56-3.98,0.23-4.85,1.99c-0.48,0.91-0.68,1.88-0.73,2.87c-0.92,1.08-1.83,2.31-1.83,3.77
	c-0.1,1.42,0.68,2.62,1.8,3.34c-0.6,3.79-0.63,7.9-0.07,11.03c-0.36,1.74-0.55,3.2-0.68,5.66c-1.49,0.62-2.73,2.02-3.11,3.58
	c-1.13,4.7-0.29,9.6,0.25,14.33c0.69,4.46,0.91,9.49,3.83,13.15c0.45,0.47,0.92,0.81,1.4,1.08c0.01,0.22,0.02,0.44,0.03,0.65
	c0.22,2.51,0.51,5.49,1.17,8.35c-0.35,0.61-0.64,1.24-0.86,1.87c-0.42,1.6-0.29,3.28,0.19,4.85c0.03,3.6,0.95,7.21,2.81,10.23
	c0.27,0.42,0.56,0.8,0.87,1.14c0.76,1.94,2.2,3.58,4.15,4.17c-0.37,1.31-0.52,2.62-0.38,3.8c0.34,2.42,1.32,4.07,2.66,5.1
	c1.54,2.33,4.06,3.58,6.82,3.94c0.62,1.8,1.89,3.32,3.48,4.34c0.4,1.08,1,2.07,1.79,2.94c0.1,0.4,0.24,0.79,0.41,1.18
	c1.45,2.93,4.11,4.09,6.98,4.1c0.45,0.79,1.1,1.54,1.98,2.22c0.39,0.26,0.81,0.47,1.24,0.64c0.9,1.84,2.77,2.93,4.93,3.19
	c0.56,0.51,1.25,0.91,2.01,1.2c0.79,0.9,1.85,1.57,3.16,1.83c1.18,0.32,2.5,0.23,3.86-0.13c1.31,1.16,3.25,1.54,5.43,1.33
	c0.38,0.2,0.79,0.35,1.21,0.42c1.08,0.18,2.12,0.12,3.12-0.1c0.25,0.01,0.51,0.01,0.77-0.01c0.88,1.21,2.49,1.92,3.99,1.51
	c0.24-0.07,0.47-0.17,0.7-0.28c0.51,0.77,1.26,1.37,2.19,1.63c2.59,0.62,5.25,0.04,7.74-0.86c0.71,0.49,1.64,0.56,2.46,0.34
	c1.81-0.14,3.4-0.91,4.9-1.86c0.15,0.19,0.31,0.36,0.51,0.49c1.67,1.36,3.59,0.1,5.23-0.88c0.07,0.01,0.14,0.04,0.21,0.04
	c0.37,0.08,0.73,0.05,1.08-0.03c1.17,1.31,2.67,1.25,4.17,0.71c0.73,0.56,1.68,0.82,2.66,0.51c4.2-1.43,8.05-3.85,11.71-6.38
	c0.91-0.38,1.8-0.79,2.67-1.24c2.95,0.86,6.73-2.13,10.4-4.31c2.96-2.08,6.01-4.06,8.86-6.29c0.09-0.08,0.19-0.16,0.28-0.23
	c0.35,0.07,0.7,0.1,1.05,0.02c1.56-0.24,2.87-1.35,4.15-2.21c0.19-0.14,0.38-0.28,0.57-0.42c0.19,0.03,0.38,0.06,0.57,0.05
	c0.88,0.01,1.57-0.39,2.18-0.92l0.01,0.01c0.06-0.06,0.12-0.12,0.17-0.19c0.49-0.46,0.94-1,1.4-1.46c1.48-1.49,3.03-2.9,4.53-4.36
	c0.47-0.44,0.94-0.89,1.41-1.34c0.71-0.65,1.44-1.34,2.15-2.06c1.15-1.11,2.28-2.22,3.4-3.36c2.38-1.64,4.55-3.56,6.56-5.63
	c2.25-2.66,7.77-7.64,6.56-11.41c1.14-1.46,2.23-2.97,3.24-4.53c0.17-0.07,0.33-0.15,0.49-0.25c0.75-0.45,1.23-1.15,1.66-1.89
	c2.73-0.27,4.76-3.76,6.13-6.08c0.82-1.4,1.58-2.83,2.32-4.28c0.2-0.32,0.4-0.64,0.58-0.97c0.11-0.22,0.22-0.43,0.33-0.65
	c0.04-0.05,0.09-0.1,0.13-0.16c3.84-4.68,7.93-10.34,6.42-16.71c-0.01-0.03-0.02-0.06-0.04-0.09c0.01-0.12,0.01-0.25,0.02-0.37
	c1.71-2.48,3.53-4.94,4.69-7.7c1.1,0.21,2.33-0.09,3.28-1.07c1.27-0.95,2.47-1.99,3.62-3.08c2.71-1.3,5.34-3.26,6.93-4.38
	c2.28-1.82,1.17-0.83,3.25-2.48c0.87-0.83,1.4-1.97,1.36-3.19c-0.01-0.96-0.36-1.75-0.92-2.33c0.47-0.56,0.9-1.15,1.29-1.78
	c0.25-0.22,0.49-0.46,0.74-0.67c1.03-0.8,1.44-2.03,1.32-3.17C410.75,426.04,410.12,424.22,408.8,423.36z M284.99,526.3
	c-0.32-0.07-0.63-0.12-0.94-0.14c-0.02,0-0.04,0-0.07,0c0.03-0.01,0.07-0.03,0.1-0.04c0.35-0.15,0.68-0.31,1.03-0.47
	C285.04,525.86,285,526.08,284.99,526.3z M289.68,530.68c-0.21-0.16-0.44-0.29-0.69-0.41c0.58-0.06,1.12-0.23,1.63-0.48
	c0.02,0.06,0.03,0.12,0.05,0.17C290.33,530.2,290,530.43,289.68,530.68z"/>
<path class="st1" d="M417.9,400.46c1-1.57,1.02-3.74-0.21-5.18c-0.22-0.36-0.52-0.64-0.85-0.88c-0.13-2.26-1.73-4.42-3.96-5
	c-0.27-0.05-0.54-0.09-0.82-0.12c-2.82-1.37-6.73-1.17-9,0.78c-0.04,0.02-0.09,0.04-0.13,0.06c-0.25,0.15-0.47,0.31-0.68,0.48
	c-0.6,0.04-1.2,0.08-1.8,0.12c-0.96-0.18-1.92-0.34-2.89-0.49c2.22-0.79,4.04-2.19,4.73-4.59c0.97-0.99,1.63-2.21,1.66-3.7
	c0.04-2.13-1.5-4.06-3.48-4.71c-0.03-0.05-0.06-0.09-0.09-0.14c0.5-0.5,0.9-1.1,1.18-1.82c0.41-1.89-0.28-3.46-1.51-4.55
	c0.28-1.18,0.47-2.38,0.44-3.63c0.04-1.34-0.24-2.65-0.77-3.85c-0.19-3.8-2.94-5.61-6.26-6.23c-0.02-0.14-0.02-0.29-0.04-0.43
	c-0.33-3.62-2.56-6.66-5.32-8.92c0,0,0,0,0,0c2.22-2.25,0.5-5.43-1.99-6.6c-0.19-0.07-0.39-0.14-0.58-0.21
	c0.53-2.79-0.27-5.75-2.29-7.87c-2.35-2.07-5.25-3.37-8.18-4.54c-3.14-4.16-6.9-7.89-11.09-10.94c-1.32-1.52-3.26-2.47-4.95-3.54
	c-3.48-2.08-7.02-4.05-10.76-5.63c-1.19-0.53-2.25-0.98-3.22-1.39c-3.18-3.4-7.33-5.89-11.85-7.19c-2.89-0.75-5.83-2.14-8.84-2.17
	c-5.79-1.45-11.8-1.99-17.7-2.81c-2.65-0.07-5.57-1.2-8.09-0.08c-0.73,0.25-1.4,0.72-1.96,1.3c-3.76,0.51-6.81,1.01-10.6,1.46
	c0,0-0.01,0-0.01,0c0.15-0.83-0.38-1.72-1.22-1.93c-0.92-0.19-1.84,0.29-2.75,0.45c-0.95,0.26-1.89,0.55-2.82,0.88
	c-0.61,0.07-1.26,0.15-1.93,0.23c-1.11,0.08-2.21,0.2-3.3,0.39c-0.33,0.08-0.7,0.1-1.04,0.17c-0.04,0.01-0.09,0.01-0.13,0.02
	c0,0.01,0,0.01,0.01,0.02c-0.27,0.07-0.54,0.17-0.75,0.37c-0.47,0.32-0.73,0.78-0.81,1.27c-2.97,0.96-5.88,2.1-8.8,3.2
	c-1.25-0.33-2.56,0.13-3.69,0.67c-1.66,0.79-3.32,1.66-4.94,2.6c-0.73-0.83-1.86-1.3-3.04-0.93c-6.28,0.88-13.05,8.46-18.15,14.6
	c-3.98,1.41-7.43,3.92-10.75,6.48c-8.33,6.31-14.66,15.2-17.96,25.1c-4.12,5.41-6.81,11.72-9.03,18.13
	c-1.15,3.04-1.87,6.21-2.63,9.36c-0.14,1.23-0.84,3.12-0.58,4.23c0.61,0.66,1.02,0.45,1.33-0.13c0.08-0.04,0.15-0.12,0.19-0.29
	c0.23-0.44,0.45-0.87,0.68-1.31c-0.11,0.46-0.17,0.93-0.16,1.43c-0.02,0.74,0.13,1.46,0.4,2.12c-0.02,0.49-0.01,0.99,0.06,1.48
	c0.07,0.53,0.21,1.13,0.58,1.53c-0.17,0.68-0.33,1.35-0.46,2.04c0,0.01,0,0.02,0,0.04c-0.55,0.03-1.09,0.09-1.63,0.23
	c-0.21,0.05-0.4,0.12-0.59,0.19c-0.83-0.28-1.77-0.25-2.67-0.07c-1.89,0.17-3.67,0.87-5.42,1.57c-0.05,0.02-0.1,0.04-0.15,0.06
	c-0.2,0.04-0.4,0.09-0.6,0.13c-0.62,0.07-1.23,0.15-1.85,0.24c-1.71,0.32-3.85,0.36-4.9,1.97c-1.42,1.62-1.05,4.53,0.74,5.73
	c0.55,0.41,1.14,0.68,1.76,0.85c-0.09,0.62-0.03,1.25,0.22,1.85c-1.74,2.3-1.15,5.02,1.09,6.59c0.07,0.61,0.32,1.21,0.77,1.75
	c0.74,1.11,2.13,1.4,3.32,1.83c2.87,0.89,5.88,1.28,8.87,1.45c3.53,0.04,7.08-0.02,10.58-0.43c1.27-0.08,2.6-0.26,3.81-0.68
	c6.64,0.36,13.28,0.42,19.91-0.16c1.12,0.1,2.22,0.19,3.24,0.27c4.09,0.15,8.19-0.01,12.28-0.22c2.68,0.07,5.37,0.13,8.05,0.12
	c0.42-0.01,0.83-0.04,1.24-0.06c19.74,2.2,50.44,7.44,74.14,5.07c2.93-0.55,5.89-2.22,6.76-5.23c0.03-0.09,0.04-0.19,0.06-0.28
	c6.2,0.85,12.01,1.55,16.26,2.14c8.58,1.42,23.26,3.41,33.98,2.21c3.76-0.49,8.08,0.16,11.23-2.34c0.5-0.34,0.93-0.7,1.28-1.09
	c0.52,0.08,1.06,0.13,1.59,0.16c1.62,0.19,3.25,0.29,4.88,0.35c1.3,0.26,2.6,0.48,3.92,0.6c1.64,0.23,3.54,0.46,4.77-0.91
	c0.44-0.42,0.63-0.98,0.62-1.54c0.06-0.01,0.12-0.03,0.19-0.04c0.64,0.01,1.26-0.08,1.79-0.38c0.62-0.14,1.21-0.47,1.53-1.04
	c0.15-0.25,0.24-0.52,0.27-0.8c0.08-0.05,0.16-0.09,0.24-0.15c1.6-1.2,1.45-3.26,0.27-4.5c0.05-0.38,0.06-0.78-0.02-1.23
	c-0.02-0.07-0.05-0.13-0.08-0.2C417.41,403.06,418,401.75,417.9,400.46z M195.82,389.53c0.32-0.65,0.64-1.29,0.97-1.94
	c0.26,0.15,0.52,0.29,0.8,0.4c-0.06,0.45-0.07,0.89,0.01,1.33C197,389.39,196.41,389.47,195.82,389.53z M214.74,387.35
	c-1.25,0.13-2.5,0.27-3.76,0.41c0.14-0.14,0.28-0.27,0.4-0.41c0.62-0.63,1.24-1.25,1.89-1.84c0.26-0.24,0.51-0.48,0.77-0.73
	c0.36,0.94,0.81,1.79,1.34,2.55C215.18,387.34,214.96,387.35,214.74,387.35z M242.28,390.61c0.32-0.24,0.63-0.49,0.94-0.75
	c0.28,0.26,0.57,0.52,0.86,0.76C243.49,390.6,242.88,390.61,242.28,390.61z M354.32,390.57c-1.1-0.14-2.2-0.28-3.3-0.41
	c0.13-0.26,0.24-0.53,0.35-0.8c1.74,0.03,3.55-0.04,5.22-0.46c0.11,0.12,0.21,0.24,0.33,0.36
	C355.99,389.58,355.11,390,354.32,390.57z"/>
<path class="st2" d="M385.39,369.04"/>
<path class="st2" d="M388.86,451.26c-15.51,51.55-64.11,97.05-117.01,97.06c-64.24,0.01-81.2-57.86-73.29-121.61
	c0.4-3.2,0.83-6.38,1.31-9.53"/>
<path class="st2" d="M270.8,415.25h-16.82c-9.88,0-17.89,8.01-17.89,17.89v0c0,9.29,7.53,16.82,16.82,16.82h17.89"/>
<path class="st2" d="M408.83,413.51c1.59,3.06,2.52,6.45,2.52,9.92c0,16.42-15.54,29.73-34.71,29.73"/>
<path class="st2" d="M411.13,415.28H184.98c-4.5,0-8.14-3.65-8.14-8.14v-10.77c0-4.5,3.65-8.14,8.14-8.14h226.15
	c4.5,0,8.14,3.65,8.14,8.14v10.77C419.28,411.63,415.63,415.28,411.13,415.28z"/>
<path class="st2" d="M190.41,388.22c6.66-53.53,52.32-94.96,107.65-94.96c55.33,0,100.99,41.43,107.65,94.96"/>
<path class="st2" d="M236.08,493.89c0,0,25.23-7.29,43.91,0"/>
<path class="st2" d="M394.08,414.27c0.93,1.79,1.48,3.78,1.48,5.81c0,9.62-9.1,17.41-20.33,17.41"/>
<line class="st3" x1="194.53" y1="395.15" x2="194.53" y2="408.17"/>
<line class="st3" x1="212.1" y1="395.36" x2="212.1" y2="408.38"/>
<line class="st3" x1="229.1" y1="395.36" x2="229.1" y2="408.38"/>
<line class="st3" x1="247.1" y1="395.36" x2="247.1" y2="408.38"/>
<line class="st3" x1="267.1" y1="395.36" x2="267.1" y2="408.38"/>
<line class="st3" x1="287.1" y1="395.36" x2="287.1" y2="408.38"/>
<line class="st3" x1="306.1" y1="395.36" x2="306.1" y2="408.38"/>
<line class="st3" x1="326.1" y1="395.36" x2="326.1" y2="408.38"/>
<line class="st3" x1="344.5" y1="395.36" x2="344.5" y2="408.38"/>
<line class="st3" x1="363.54" y1="395.36" x2="363.54" y2="408.38"/>
<line class="st3" x1="381.5" y1="395.13" x2="381.5" y2="408.15"/>
<line class="st3" x1="399.1" y1="395.13" x2="399.1" y2="408.15"/>
<path class="st4" d="M290.45,369.03c-9.19,0-16.65-7.45-16.65-16.65s7.45-16.65,16.65-16.65"/>
<path class="st4" d="M290.45,360.23c-4.33,0-7.85-3.51-7.85-7.85c0-4.33,3.51-7.85,7.85-7.85"/>
<path class="st4" d="M295.07,352.38c9.19,0,16.65-7.45,16.65-16.65s-7.45-16.65-16.65-16.65"/>
<path class="st4" d="M295.07,343.58c4.33,0,7.85-3.51,7.85-7.85s-3.51-7.85-7.85-7.85"/>
</svg>
