<?xml version="1.0" encoding="utf-8"?>
<!-- Generator: Adobe Illustrator 26.0.3, SVG Export Plug-In . SVG Version: 6.00 Build 0)  -->
<svg version="1.1" id="Calque_1" xmlns="http://www.w3.org/2000/svg" xmlns:xlink="http://www.w3.org/1999/xlink" x="0px" y="0px"
	 viewBox="0 0 595.28 841.89" style="enable-background:new 0 0 595.28 841.89;" xml:space="preserve">
<style type="text/css">
	.st0{fill:#F9CDA8;}
	.st1{fill:#A2824E;}
	.st2{fill:none;stroke:#000000;stroke-width:7;stroke-miterlimit:10;}
	.st3{fill:none;stroke:#000000;stroke-width:7;stroke-linecap:round;stroke-miterlimit:10;}
</style>
<g>
	<path class="st0" d="M389.15,483.55c0.16-0.18,0.43-0.49,0.49-0.63c-0.13,0.18-0.25,0.36-0.41,0.52
		C389.21,483.48,389.18,483.51,389.15,483.55z"/>
	<path class="st0" d="M391.6,475.65C391.6,475.65,391.6,475.66,391.6,475.65C391.6,475.66,391.6,475.66,391.6,475.65
		c0.06-0.07,0.15-0.17,0.24-0.28c-0.06,0.07-0.12,0.14-0.18,0.21C391.63,475.62,391.62,475.63,391.6,475.65z"/>
	<path class="st0" d="M418.22,434.85c-0.65-2.43-2.41-3.81-4.67-4.53c-0.86-0.84-1.92-1.35-3.08-1.59
		c-0.48-0.32-1.01-0.59-1.61-0.78c-4.24-1.68-9.06-0.47-13.34,0.54c-1.23,0.38-2.49,0.76-3.73,1.21c-1.25,0.18-2.5,0.38-3.74,0.58
		c-0.82-0.3-1.73-0.49-2.68-0.6c1.1-2.33-0.25-5.34-2.8-6.01c-0.77-0.21-1.54-0.21-2.31,0c-3.3,0.65-2.45,0.44-3.79,0.67
		c-1.21,0.19-2.41,0.38-3.62,0.58c-0.19-0.98-0.7-1.9-1.52-2.46c-1.56-1.09-3.39-1.15-5.26-0.91c-0.17-0.31-0.38-0.61-0.64-0.86
		c-1.47-1.52-3.52-1.14-5.39-0.84c-0.8,0.12-1.59,0.24-2.39,0.36c-0.73-0.78-1.76-1.28-2.93-1.25c-0.23,0.02-0.45,0.05-0.68,0.08
		c-1.83-2.64-5.49-1.85-8.25-1.35c-0.22,0.03-0.44,0.06-0.67,0.09c-0.32-0.18-0.66-0.35-1.05-0.47c-2.03-0.46-4.06-0.2-6.09,0.14
		c-0.17,0.02-0.33,0.04-0.5,0.07c-4.17-0.45-8.38-0.42-12.58-0.33c-0.22-0.25-0.48-0.47-0.75-0.66c-0.46-0.86-1.22-1.55-2.25-1.8
		c-1.85-0.43-3.67,0.53-5.5,0.84c-1.29,0.07-2.57,0.17-3.85,0.3c-0.84-0.15-1.72-0.16-2.57-0.18c-0.29-0.25-0.61-0.47-0.96-0.63
		c-0.36-0.49-0.84-0.89-1.45-1.1c-2.12-0.73-4.52-0.36-6.72-0.13c-0.37,0.04-0.73,0.08-1.1,0.12c-0.31-0.21-0.65-0.38-1.02-0.47
		c-1.41-0.59-2.91-0.52-4.4-0.32c-0.44-0.64-1.08-1.14-1.9-1.34c-1.06-0.32-2.11,0.08-3.17,0.19c-0.33,0.05-0.65,0.11-0.98,0.16
		c-0.45-0.58-1.06-1.04-1.81-1.24c-0.61-0.15-1.23-0.12-1.85-0.03c-1.09-0.4-2.42-0.23-3.54,0.08c-1.76,0.33-3.5,0.71-5.25,1.08
		c-2.56,0.65-5.34,0.66-7.72,1.87c-0.13,0.07-0.23,0.17-0.34,0.26c0,0,0,0-0.01,0c-1.46-0.88-3.21-0.27-4.8-0.15
		c-0.81,0.1-1.61,0.21-2.42,0.32c-0.38-0.35-0.85-0.62-1.39-0.75c-1.15-0.28-2.28,0.04-3.41,0.35c-0.86,0.18-1.73,0.34-2.59,0.5
		c-0.16-0.08-0.33-0.16-0.5-0.21c-2.3-0.63-4.63,0.49-6.87,0.96c-2.01,0.6-4.05,1.09-6.03,1.78c-0.65,0.28-1.38,0.51-1.98,0.91
		c-0.06,0.02-0.12,0.03-0.19,0.05c-0.28,0.06-0.57,0.12-0.85,0.18c-0.37,0.06-0.75,0.13-1.12,0.23c-0.09,0.02-0.18,0.04-0.28,0.06
		c0,0.01,0,0.02,0.01,0.02c-0.47,0.15-0.92,0.36-1.3,0.65c-0.43,0.19-0.85,0.39-1.26,0.62c-0.64,0.44-1.02,1.08-1.21,1.78
		c-0.81,0.25-1.62,0.53-2.43,0.8c-0.2,0.06-0.4,0.14-0.6,0.2c-1.69-0.03-3.38,0.49-5.05,0.75c-3.39,0.81-6.74,1.82-10.03,2.98
		c-1.94,0.84-4.32,1.26-5.47,3.21c-0.84,1.26-0.92,2.89-0.28,4.14c-0.16,0.33-0.3,0.67-0.4,1.04c-0.32,1.39,0.03,2.48,0.75,3.3
		c-0.84,0.6-1.61,1.29-2.27,2.08c-2.3,2.41-3.13,6.63-0.99,9.31c0.07,0.73,0.25,1.42,0.53,2.07c0.02,0.11,0.03,0.22,0.05,0.33
		c0.36,1.22,0.97,2.12,1.73,2.77c-3.96,2.46-5.6,7.22-4.16,11.41c-0.05,1.78,0.34,3.59,1.1,5.22c-0.09,1.77,0.33,3.54,1.36,5.02
		c0.03,0.24,0.07,0.48,0.13,0.72c-0.06,0.2-0.12,0.39-0.17,0.6c-0.33,1.62-0.2,3.05,0.26,4.29c-0.25,0.3-0.49,0.62-0.71,0.95
		c-0.28,0.39-0.51,0.81-0.72,1.24c-2.46,2.09-3.93,5.22-2.94,8.55c0.56,1.65,1.53,2.88,2.76,3.75c0.12,2.33,1.59,4.36,3.91,5.2
		c0.01,0.02,0.02,0.05,0.04,0.07c0.02,1.18,0.37,2.33,1.13,3.42c0.4,0.6,0.9,1.09,1.44,1.52c-0.88,0.86-1.68,1.78-2.36,2.74
		c-3.24,4.92-1.18,10.11,4.56,11.55c0.47,0.08,0.93,0.14,1.4,0.19c-0.17,0.98-0.15,1.98,0.08,2.96c-0.66,2.07-0.38,4.34,1.35,6.25
		c1.17,1.14,2.64,1.81,4.2,2.18c-1.22,1.55-1.82,3.44-1.21,5.72c1.1,3.12,3.98,4.48,7.05,4.94c0.72,0.34,1.45,0.61,2.2,0.82
		c0.77,2.18,2.79,3.87,5.14,4.18c0.25,0.05,0.49,0.09,0.74,0.12c0.68,0.36,1.43,0.63,2.24,0.81c0.3,0.05,0.61,0.09,0.92,0.13
		c0.08,0.2,0.17,0.41,0.28,0.62c0.78,1.82,2.38,2.61,4.16,2.89c-0.09,2.15,1.62,4.28,3.95,4.22c0.29,0,0.58-0.02,0.87-0.02
		c0,0.49,0.1,0.98,0.33,1.44c0.86,2.18,2.94,2.51,5.07,2.47c0.63,0.46,1.33,0.82,2.03,1.02c3.73,0.67,7.54,0.75,11.32,0.42
		c1.54,0.46,3.4,0.27,4.93,0.29c2.77-0.16,5.56-0.28,8.32-0.63c0.78-0.1,1.57-0.22,2.36-0.35c0.46-0.06,0.9-0.11,1.34-0.15
		c2.46-0.32,4.91-0.77,7.32-1.38c0.51,0.48,1.12,0.86,1.83,1.04c0.1,0.03,0.21,0.04,0.32,0.07c0.21,0.19,0.43,0.37,0.7,0.53
		c1.36,0.83,3.02,0.47,4.5,0.27c2.38-0.45,4.71-1.14,7.02-1.85c2.66-0.87,5.3-1.83,7.82-3.07c2.18-0.91,4.46-2.29,5.12-4.7
		c0-0.01,0.01-0.03,0.01-0.05c0.6,1.03,1.37,1.92,2.57,2.23c2.62,0.33,2.49-0.36,3.37-0.55c2.87-1.01,5.49-2.56,7.91-4.38
		c5.73-4.32,11.32-8.88,16.24-14.1c7.69-5.61,15.85-11.16,24.12-18.27c1.85-1.75,1.21-5.01-0.98-6.09c1.29-1.24,2.56-2.56,3.12-4.2
		c2.35-1.71,4.64-3.5,6.82-5.43c1.7-1.79,4.44-3.24,4.82-5.85c0.35-1.68-0.71-3.48-2.24-4.24c0.55-0.5,1.1-1,1.63-1.52
		c1.92-1.9,3.68-3.96,5.31-6.11c-0.13,0.15-0.19,0.19,0.05-0.07c0.01-0.01,0.02-0.03,0.03-0.04c0.14-0.19,0.29-0.37,0.43-0.56
		c0,0.01-0.01,0.03-0.02,0.04c0.71-1.01,0.9-2.26,0.63-3.41c0.56-0.56,1.02-1.19,1.24-2c0.17-0.66,0.18-1.27,0.09-1.85
		c-0.01,0.01-0.02,0.02-0.03,0.03c0.01-0.01,0.02-0.02,0.02-0.03c0,0,0,0,0,0c0,0,0,0,0,0c0.18-0.24,0.37-0.47,0.55-0.71
		c-0.04,0.08-0.18,0.25-0.31,0.42c1.25-1.49,2.48-3.11,2.53-5.13c-0.01-3.38-1.72-5.15-4.22-5.11c0,0-0.01-0.01-0.01-0.01
		c2.01-0.47,4.02-0.96,5.98-1.6c0.75,0.44,1.65,0.66,2.68,0.53c2.48-0.12,4.6-1.61,6.71-2.78c2.35-1.51,4.74-3.07,6.55-5.24
		c2.14-2.06,2.68-5.36,1.47-7.81c0.34-0.68,0.53-1.36,0.61-2.02c0.08-0.31,0.16-0.61,0.21-0.93c0.26-0.43,0.44-0.9,0.53-1.41
		c0.09-0.07,0.17-0.13,0.26-0.19c1.51-1.22,2.29-3.01,2.27-4.74C418.25,437.88,418.64,436.55,418.22,434.85z M251.87,483.39
		c0,0.22,0.04,0.42,0.08,0.62c-0.69-0.1-1.39-0.22-2.08-0.34c-0.11-0.1-0.23-0.19-0.33-0.29c-0.03-0.03-0.05-0.06-0.07-0.08
		c-0.13-0.19-0.3-0.46-0.47-0.74c1.16-0.58,1.98-0.82,3.29-1.38c0.16-0.06,0.33-0.12,0.5-0.18
		C252.24,481.7,251.85,482.46,251.87,483.39z"/>
</g>
<g>
	<path class="st1" d="M162.98,385.38c0.06-0.17,0.13-0.35,0.2-0.53C163.09,385.08,163.02,385.26,162.98,385.38z"/>
	<path class="st1" d="M439.78,372.72c0.02-0.57-0.03-1.13-0.15-1.67c2.25-4.58,1.71-9.67-1.79-12.45c0.71-0.86,1.31-1.79,1.4-2.9
		c0.45-2.17-1.12-4.36-3.16-5.02c-0.04-0.13-0.08-0.26-0.13-0.39c-0.48-1.21-1.52-2.22-2.73-2.79c-0.13-1.03-0.49-2.03-1.04-2.9
		c-0.27-1.03-0.84-1.98-1.62-2.71c-0.69-1.08-1.63-1.99-2.7-2.72c-1.36-1.68-3.34-2.4-5.46-2.45c-0.15-0.76-0.4-1.5-0.78-2.2
		c-0.13-0.38-0.3-0.74-0.49-1.1c2.25-0.47,3.08-3.6,1.35-5.19c-0.04-0.05-0.09-0.09-0.13-0.14c0.1-0.66-0.02-1.4-0.43-2.19
		c-0.76-1.53-2.11-2.45-3.6-3.17c0-1.75-0.54-3.53-1.35-5.13c0.39-2.54-1.59-5.26-3.59-7.25c0.41,0.29,0.84,0.57,1.24,0.87
		c0.39,0.21,1.1,1.27,0.65,0.35c-1.98-3.69-5.07-6.61-8.21-9.34c-5.44-7.73-13.85-12.79-22.89-15.86c-2.3-1.13-4.7-2.05-7.19-2.66
		c-2.21-0.38-4.48-0.6-6.75-0.6c-2.97-0.41-5.96-0.39-8.94-0.08c-0.29-0.03-0.58-0.07-0.86-0.1c-3.09-1.06-6.7-0.86-9.89-1.09
		c-4.06-0.02-11.84-0.58-16.28,1.86c-4.91-5.35-11.56-6.44-16.98-3.24c-0.28,0.18-0.55,0.37-0.81,0.57
		c-0.08-0.04-0.16-0.08-0.25-0.12c-1.73-1.01-3.8-1.09-5.76-1.1c-2.31,0.05-4.63,0.22-6.9,0.65c-7.14,0.08-14.33,1.94-20.74,4.94
		c-0.31,0.18-0.63,0.34-0.88,0.6c0.8-0.32,1.67-0.4,2.52-0.53c1.05-0.1,2.11-0.21,3.16-0.32c-5.54,1.72-10.74,4.39-15.49,7.76
		c-0.45,0.31-0.91,0.61-1.36,0.92c-0.18,0.09-0.37,0.18-0.55,0.28c-0.83,0.26-1.64,0.55-2.44,0.86c-0.43-0.76-1.13-1.36-2.01-1.59
		c-0.6-0.18-1.21-0.13-1.81,0v0c0,0,0,0,0,0c-0.45,0.1-0.89,0.25-1.33,0.4c-0.64,0.21-1.27,0.45-1.9,0.69
		c-0.57,0.2-1.15,0.39-1.72,0.6c-4.97,1.79-9.78,3.99-14.5,6.36c-1.95,1.12-4.27,1.91-5.84,3.54c-0.58,0.68-0.72,1.49-0.57,2.24
		c-0.7,0.59-1.37,1.21-2.02,1.84c-0.47-0.71-1.18-1.27-2.18-1.55c-1.84-0.52-3.57,0.62-5.24,1.24c-2.84,1.38-11.21,5.96-12.9,10.24
		c-0.09,0.07-0.19,0.13-0.28,0.19c-0.54,0.31-0.89,0.74-1.08,1.23c-0.13,0.09-0.25,0.18-0.38,0.27c-0.35,0.21-0.7,0.42-1.05,0.62
		c-5.47,3.2-10.83,6.59-16.1,10.13c-2.05,1.51-4.85,2.57-5.65,5.19c-1.29,1.03-2.43,2.34-3.62,3.46c-3.43,3.59-6.7,7.61-8.32,12.36
		c-0.28,0.96-0.4,1.91-0.39,2.83c-2.71,0.61-5.28,2.43-7.03,4.43c-3.43,4.04-3.91,8.7-2.39,12.08c-0.18,0.34-0.34,0.68-0.5,1.02
		c-2.03,1.9-3.71,4.12-4.59,6.81c-0.38,1.29-0.53,2.52-0.53,3.71c-0.25,0.52-0.46,1.03-0.66,1.55c0.17-0.4,0.4-0.91,0.57-1.29
		c-0.26,0.62-0.53,1.23-0.78,1.85c0-0.01,0.01-0.02,0.01-0.04c-1.81,5.15-1.05,9.96,2.45,14.04c1.91,2.74,4.73,4.54,7.85,5.46
		c-0.04,0.15,0.01,0.32,0.1,0.49c-0.28,0.59-0.23,1.31,0.21,1.86c-0.48,1.51-0.71,3.22-0.17,4.71c0.18,1.58,0.88,3.19,2.28,4.77
		c1.73,1.83,4.05,2.78,6.5,3.17c0.45,0.33,0.94,0.59,1.47,0.75c1.54,0.41,3.15,0.23,4.71-0.05c0.35,0.28,0.9,0.34,1.34,0.4
		c0.46,0.1,1.05,0.02,1.48-0.24c0.25,0.02,0.51,0.03,0.76,0.05c0.43,1.02,1.14,1.91,2.12,2.48c1.36,0.7,2.89,0.84,4.43,0.82
		c2.94,0.49,8.42-0.31,12.92-1.71c1.47-0.32,3.04-0.65,4.56-1.11c1.66,0.21,3.36-0.26,5-0.53c6.18-1.1,12.32-2.46,18.34-4.23
		c2.9-0.9,6.94-1.29,8.29-4.4c0.36-0.18,0.71-0.37,1.05-0.56c0.84,2.13,2.82,3.85,5.38,4.03c5.97,0.32,24.07,0.9,27.45-4.65
		c3.06,0.51,6.13,0.91,9.22,1.15c1.06,0.34,2.18,0.56,3.25,0.82c3.56,0.67,7.19,1.14,10.82,1.04c3.93-0.34,1.86-0.21,4.29-0.5
		c0.36-0.05,0.7-0.13,1.03-0.22c1.36,1.1,3.21,1.24,4.89,1.08c0.19,0,0.38-0.02,0.57-0.02c0.56,0.69,1.25,1.3,2.11,1.8
		c2.69,1.47,5.93,1.15,8.89,1.54c3.36,0.29,6.73,0.15,10.08-0.15c1.23-0.09,2.45-0.27,3.63-0.57c1.95,0.58,3.96,0.95,5.98,1.15
		c1.76,0.19,3.54,0.28,5.31,0.38c1.44,0.1,3.19,0.04,4.3-0.96c0.37,0.03,0.74,0.05,1.11,0.06c-0.39,2.04,0.61,3.24,2.09,3.88
		c0.6,0.44,1.33,0.72,2.04,0.91c0.17,0.06,0.35,0.11,0.52,0.16c0.85,1.21,2.14,1.66,3.58,1.77v0.05c0.11-0.01,0.21-0.02,0.32-0.02
		c0.87,0.04,1.78-0.03,2.68-0.12c0.62-0.03,1.25-0.06,1.87-0.09c2.7,0.4,5.59,0.66,7.6-0.7c0.74,0.89,1.74,1.55,2.87,1.87
		c0.4,0.12,2.8,0.33,1.7,0.18c-1.34-0.19,0.76,0.1,0.84,0.11c0.38,0.05,0.76,0.07,1.13,0.1c2.75,1.02,6.05,0.77,8.93,1.03
		c3.55,0.01,8.04,0.57,11.17-1.32c2.24-0.04,4.48,0.01,6.71,0c1.07-0.11,2.31-0.09,3.4-0.37c0.5,0,1.01,0.01,1.51,0
		c1.84-0.12,3.84,0.1,5.48-0.86c1.99-1.14,3.02-3.64,2.38-5.85c-0.06-0.24-0.14-0.46-0.22-0.68c1.21-0.2,2.32-0.45,3.24-0.74
		c4.62-1.37,7.01-6.77,3.77-10.18c-0.01-1.22-0.33-2.43-0.91-3.5c0.81-2.02,0.72-4.2-0.07-6.16c0.82-1.06,1.19-2.6-0.24-3.33
		c-0.34-0.19-0.73-0.23-1.11-0.17c0.37-0.55,0.59-1.08,0.57-1.56c0.96-1.27,1.7-2.72,1.67-4.27c1.09-0.67,2.01-1.6,2.75-2.71
		c0.72-0.88,1.46-1.75,2.21-2.61c0.5-0.44,0.98-0.9,1.43-1.36c2.31-2.02,3.81-4.89,2.96-7.99
		C439.85,372.91,439.81,372.81,439.78,372.72z"/>
</g>
<path class="st2" d="M242.45,516.44c0,0,22.76,24.64,44.19,0"/>
<path class="st2" d="M395.51,466.86C380,518.41,331.4,563.92,278.5,563.92c-64.24,0.01-81.2-57.86-73.29-121.61
	c0.4-3.2,1.79-13.68,2.26-16.83"/>
<path class="st2" d="M261.48,448.21h-16.82c-9.88,0-17.89,8.01-17.89,17.89v0c0,9.29,7.53,16.82,16.82,16.82h17.89"/>
<path class="st2" d="M415.48,429.11c1.59,3.06,2.52,6.45,2.52,9.92c0,16.42-15.54,29.73-34.71,29.73"/>
<path class="st2" d="M400.73,429.87c0.93,1.79,1.48,3.78,1.48,5.81c0,9.62-9.1,17.41-20.33,17.41"/>
<path class="st3" d="M276.66,410.85c0,0-16.77,9.83-32.53-1.93"/>
<path class="st3" d="M305.08,413.32c0,0-18.51,5.94-31.33-8.98"/>
<path class="st3" d="M328.66,416.65c0,0-18.89,4.57-30.59-11.23"/>
<path class="st3" d="M352.36,419.11c0,0-18.89,4.57-30.59-11.23"/>
<path class="st3" d="M379.38,425.04c0,0-18.89,4.57-30.59-11.23"/>
<path class="st3" d="M371.61,417.27c11.7,15.81,30.59,11.23,30.59,11.23"/>
<path class="st3" d="M247.87,411.81c0,0-52.6,31.07-74.46-0.46s7.91-61.45,7.91-61.45"/>
<path class="st3" d="M183.73,366.54c0,0-10.77-30.63,27.46-45.18"/>
<path class="st3" d="M209.18,349.9c0,0-10.77-30.63,27.46-45.18"/>
<path class="st3" d="M230.76,330.44c0,0-3.66-32.26,36.86-37.9"/>
<path class="st3" d="M401.32,428.6c10.25,0.77,20.74-4.33,26.46-12.87c5.72-8.54,6.46-20.18,1.85-29.37
	c8.12-6.02,12.57-16.63,11.19-26.64s-8.55-19.01-17.99-22.61c-1.26-23.67-17.89-45.8-40.28-53.6c-22.39-7.79-49.17-0.77-64.86,17"/>
<path class="st3" d="M256.26,329.04c-0.59-16.83,10.01-33.87,26.89-43.25c16.88-9.38,39.43-10.77,57.23-3.51"/>
</svg>
