<?xml version="1.0" encoding="utf-8"?>
<!-- Generator: Adobe Illustrator 26.0.3, SVG Export Plug-In . SVG Version: 6.00 Build 0)  -->
<svg version="1.1" id="Calque_1" xmlns="http://www.w3.org/2000/svg" xmlns:xlink="http://www.w3.org/1999/xlink" x="0px" y="0px"
	 viewBox="0 0 595.28 841.89" style="enable-background:new 0 0 595.28 841.89;" xml:space="preserve">
<style type="text/css">
	.st0{fill:#E7C7A7;}
	.st1{fill:#7B665D;}
	.st2{fill:none;stroke:#000000;stroke-width:7;stroke-miterlimit:10;}
</style>
<path class="st0" d="M398.41,391.65c0.04-0.35,0.06-0.71,0.05-1.07c-0.03-1.18-0.4-2.32-1.01-3.32c0-0.35-0.04-0.7-0.12-1.04
	c-0.38-1.63-1.28-3-2.4-4.22c-0.94-2.49-3.26-4.65-5.89-5.42c-1.39-1.25-3.06-2.39-4.77-3.07c1.11-2.66,1.13-5.7-0.56-8.45
	c-0.25-0.4-0.52-0.78-0.8-1.15c0.08-0.46,0.13-0.93,0.16-1.39c0.32-2.81,0.61-5.63,0.66-8.46c0.07-2.13,0.08-4.26,0.05-6.4
	c0.07-1.43-0.38-2.99-1.42-3.89c0.39-1.33,0.72-2.67,0.76-4.06c0.06-2.06-2-3.91-4.04-3.51c-2.74,0.32-3.23,3.03-3.67,5.44
	c-0.68-0.25-1.44-0.33-2.22-0.16c-3.08,0.48-4.97,2.97-6.93,5.27c-6.79-1.19-13.72-0.29-20.53,0.27c-2.78,0.29-5.58,0.44-8.36,0.76
	c-1-2.16-4.34-2.15-6.52-1.99c-3.22,0.13-6.49,0.63-9.5,1.79c-0.55,0.06-1.09,0.13-1.64,0.22c-4-0.83-8.22-0.89-12.04,0.46
	c-0.01-0.03-0.01-0.07-0.01-0.1c-0.16-1.36-1.43-2.36-2.77-2.42c-0.87,0.06-1.69,0.51-2.45,1.18c-0.63-0.24-1.43,0.2-2.05,0.86
	c-1.13,0.2-2.23,0.72-3.05,1.53c-1.54,1.41-2.35,3.53-2.22,5.61c-0.11,0.22-0.21,0.46-0.3,0.72c-1.4-1.29-3.85-1.39-5.22,0.08
	c-2.52,2.39-3.92,5.66-5.63,8.63c-0.59,1.04-1.18,2.08-1.76,3.12c-0.88-0.51-1.93-0.7-2.96-0.4c-2.19,0.9-3.71,2.71-5.11,4.62
	c-1.12-0.11-2.27,0.23-3.14,1.13l0,0c-0.01,0.01-0.02,0.03-0.03,0.04c-0.1,0.11-0.2,0.21-0.29,0.33c-0.22,0.27-0.44,0.55-0.66,0.82
	c-1.25-0.71-2.84-0.78-4.15-0.02c-1.3,0.9-2.12,2.28-2.9,3.68c-0.08,0.03-0.16,0.05-0.25,0.08c-1.51-0.58-3.29-0.41-4.53,0.9
	c-0.09,0.1-0.16,0.2-0.25,0.3c-1.01,0.21-2.01,0.4-3.03,0.58c-1.43-0.09-2.96,0.12-4.49,0.48c-2.84-0.17-5.69,0.25-8.49,0.64
	c-3.17,0.56-6.6,1.32-9.16,3.38c-0.21-0.59-0.53-1.18-1-1.77c-2.55-2.23-5.82-2.36-9.1-1.95c-0.98,0.06-1.96,0.22-2.9,0.47
	c-1.05,0.19-2.08,0.39-3.06,0.55c-0.21,0.04-0.43,0.08-0.64,0.12c2.05-0.34-1.2,0.21-2.81,0.54c-0.31-0.55-0.74-1.02-1.29-1.32
	c-0.34-0.1-0.74-0.26-1.1-0.2c-0.6-0.37-1.34-0.51-2.13-0.27c-0.17,0.05-0.32,0.12-0.47,0.2c-0.62-0.36-1.29-0.6-1.99-0.72
	c-0.76-0.33-1.57-0.45-2.35-0.35c-1.1-0.27-2.29-0.15-3.16,0.62c-0.57,0.49-1.04,1.08-1.43,1.71c-1.65,1.08-2.08,3.16-1.82,5.13
	c-0.49,1.86-0.54,3.98,0.04,5.81c0.26,1.04,0.78,2,1.5,2.73c-0.3,1.55-0.45,3.14-0.51,4.65c-4.59,1.77-2.31,9.47-2,13.46
	c0.85,4.83,1.35,7.6,2.13,11.21c0.02,0.92,0.05,1.84,0.08,2.77c-0.1,2.24,0.2,4.84,2.04,6.32c0.24,0.84,0.54,1.66,0.92,2.4
	c-0.03,0.08-0.07,0.15-0.09,0.22c-0.73,3.76,1.04,7.54,2.23,11.05c0.04,0.1,0.08,0.2,0.12,0.29c0.66,3.62,2.35,7.03,3.77,10.4
	c3.1,6.91,6.9,13.54,11.62,19.47c2.12,2.61,4.84,6.29,8.34,6.36c0.57,0.54,1.14,1.07,1.73,1.58c2.78,2.32,8.22,6.47,12.47,6.73
	c0.99,0.61,2.1,1.05,3.2,1.44c1.27,0.51,2.56,0.98,3.88,1.33c-0.25,1.45,0.23,3.03,1.3,4.12c2.57,2.38,6.51,1.27,9.52,0.42
	c0.52-0.17,1.02-0.33,1.51-0.47c0.15-0.01,0.3-0.02,0.46-0.03c10.47,0.02,16.7-1.74,25.12-2.4c5.57-0.41,11.22-0.34,16.68-1.67
	c5.65-1.64,11.49-3.53,16.17-7.22c1.25-1.26,1.73-2.71,1.63-4.06c0.99-0.39,1.97-0.79,2.95-1.2c3.46-1.4,7.13-2.19,10.76-3.05
	c1.75-0.52,3.76-0.69,5.12-2.01c1.27-1.21,1.55-3.16,0.93-4.74c0.28-0.35,0.55-0.71,0.81-1.07c0.49-0.54,0.95-1.09,1.38-1.67
	c1.44,0.19,2.98-0.35,3.74-1.78l0,0c1.38-2.21,2.88-4.34,4.39-6.47c0.36,0.09,0.73,0.15,1.08,0.16c1.24-0.01,2.37-0.63,3.25-1.47
	c0.51-0.62,1.93-2.46,0.73-0.93c1.21-1.46,2.21-3.07,3.09-4.74c0.65-1.41,1.32-2.87,1.35-4.44c0-0.31-0.05-0.6-0.12-0.89
	c1.11-1.83,2.22-3.65,3.26-5.53c0.1-0.19,0.2-0.39,0.3-0.58c0.07-0.11,0.15-0.23,0.22-0.34c0.29-0.38,0.54-0.79,0.77-1.21
	c1.05-1.69,2.08-3.4,3.04-5.15c1.01-1.8,2.03-3.68,2.17-5.76c0.81-2.02,1.44-4.07,1.56-5.91c0.16-0.42,0.31-0.86,0.41-1.3
	c0.26-1.05,0.17-2.11-0.16-3.08c2.84-0.3,5.59-1.33,7.88-3.09c0.75-0.41,1.21-1.08,1.4-1.81c1,0.96,2.58,1.34,3.88,0.69
	c0.84,0.18,1.78-0.05,2.41-0.65c2.43-2.39,4.52-5.24,6.01-8.32c0.25-0.51,0.51-1.1,0.76-1.73c0.45-0.62,0.87-1.27,1.22-1.94
	c0.18-0.29,0.39-0.57,0.56-0.87c1-1.65,1.72-3.45,2.69-5.12c0.2-0.44,0.71-0.58,1.11-1.85
	C400.84,394.16,399.89,392.37,398.41,391.65z M377.25,369.93c-0.03,0.15-0.07,0.28-0.1,0.38c-0.21,0.45-0.45,0.89-0.73,1.31
	c-0.14,0.15-0.32,0.33-0.5,0.51c-0.14,0.09-0.34,0.21-0.55,0.33c-0.19,0.07-0.38,0.15-0.58,0.2c-0.22,0.05-0.39,0.09-0.53,0.12
	c0.1-0.23,0.18-0.47,0.27-0.7c0.01,0,0.02,0.01,0.02,0.01c0.19-0.55,0.47-1.23,0.79-2c0.6-0.14,1.18-0.44,1.66-0.93
	c0.04,0.07,0.09,0.15,0.12,0.22c0.04,0.14,0.08,0.27,0.11,0.38C377.25,369.81,377.25,369.87,377.25,369.93z"/>
<g>
	<path class="st1" d="M331.81,344c0.08,0.01,0.15,0.02,0.2,0.02C331.94,344.01,331.88,344,331.81,344z"/>
	<g>
		<path class="st1" d="M336.75,235.05c0.01-0.01,0.01-0.02,0.02-0.02C336.75,235.04,336.75,235.05,336.75,235.05z"/>
		<path class="st1" d="M422.53,291.94C422.52,291.94,422.52,291.94,422.53,291.94c-0.16-3.85-0.25-7.84-1.41-11.53
			c0.93-0.7,1.61-1.73,1.73-2.98c0.29-1.62-1.2-3.05-2.77-3.1c-0.15-0.01-0.31-0.01-0.46,0.01c0.08-0.14,0.15-0.29,0.21-0.44
			c0.39-0.81,0.35-1.79,0.11-2.63c-0.22-1.37-0.55-2.71-0.83-4.06c-1.36-5.92-3.16-11.75-5.16-17.49c-1.16-2.6-2.01-5.66-4.5-7.3
			c-0.55-0.35-1.15-0.58-1.77-0.7c-1.59-1.86-3.44-3.27-5.62-3.6c-0.32-0.05-0.64-0.07-0.96-0.06c-0.11-0.07-0.21-0.15-0.31-0.22
			c-2.03-2.83-5.24-4.99-8.77-5.22c-1.53-0.04-2.9,0.41-3.97,1.19c-0.03-0.02-0.06-0.05-0.09-0.06c-1.51-0.69-3.16-0.99-4.83-1.2
			c-0.11-0.03-0.23-0.05-0.34-0.08c-2.37-0.47-8.52-2.4-11.03-0.86c-0.33-0.05-0.67-0.09-0.99-0.17c0.22,0.13,0.45,0.24,0.69,0.35
			c-0.07,0.02-0.14,0.05-0.21,0.07c-2.14-0.26-4.29-0.46-6.45-0.44c-0.53-0.02-1.01,0.14-1.42,0.41c-0.74-0.09-1.49-0.18-2.24-0.24
			c-1.37-0.08-2.84-0.38-4.17,0c-0.12,0-0.24-0.01-0.36-0.01c-0.21-0.01-0.42,0.01-0.63,0.05c-1.29-0.2-2.6-0.3-3.9-0.27
			c-1.14,0.04-2.03,0.72-2.48,1.58c-2.38-0.14-4.78-0.14-7.09-0.14c-2.11-0.18-4.49,0.23-5.68,2.15c-0.03,0.03-0.05,0.07-0.08,0.1
			c0.01-0.02,0.02-0.03,0.04-0.05c-0.01,0.02-0.02,0.03-0.03,0.05c-0.02,0.03-0.02,0.03-0.02,0.03c-0.04,0.05-0.07,0.09-0.11,0.14
			c-0.54-0.5-1.11-0.96-1.73-1.37c-0.24-0.68-0.54-1.33-0.87-1.96c2.28-1.02,3.33-4.04,0.62-5.87c-0.59-0.26-1.6-0.64-2.8-1.02
			c-0.03-0.05-0.04-0.11-0.07-0.16c-0.55-0.96-1.52-1.54-2.5-2c-2.06-1.01-4.16-1.92-6.24-2.88c-1.23-0.57-2.46-1.14-3.69-1.71
			c0.55-0.07,0.17-0.15-0.47-0.22c-0.09-0.04-0.19-0.09-0.28-0.13c-0.63-0.35-1.28-0.65-1.98-0.74c-0.88-0.18-1.69,0.07-2.32,0.56
			c-5.91-0.19-11.84-0.03-17.69,0.83c-2.76,0.37-5.27,1.03-7.66,1.52c-2.12-0.08-4.24,0.11-6.35,0.48
			c-0.99,0.18-2.12,0.16-2.88,0.92c-0.72,0.49-1.13,1.21-1.32,2c-3.52,0.48-6.73,0.87-13.82,1.46c-2.76,0.27-5.53,0.83-8.09,1.94
			c-2.24,1.26-2.96,4.24-1.75,6.47c-0.49,0.23-0.98,0.45-1.46,0.69c-0.4,0.15-0.79,0.3-1.19,0.45c0.14-0.01,0.27-0.02,0.41-0.03
			c-2.7,1.43-5.3,3.06-7.76,4.89c-0.81,0.38-1.61,0.77-2.4,1.2c-2.74,0.95-5.44,2.01-8.07,3.23c-1.21,0.65-4.06,1.26-4.76,3.08
			c-0.11,0.38-0.08,0.76,0.04,1.11c-2.13,0.9-4.23,1.88-6.26,3c-1.07,0.64-2.36,1.12-3.13,2.13c-0.93,1.04-0.8,2.59-0.04,3.67
			c-1.17,0.64-2.34,1.28-3.53,1.89c-0.8,0.41-1.74,0.74-2.23,1.53c-0.67,0.77-0.85,1.77-0.66,2.7c-0.76,0.21-1.47,0.54-2.14,0.94
			c-2.46-0.89-5.31-0.79-7.56,0.61c-2.72,1.62-4.58,4.18-6.36,6.73c-2.14,2.89-4.18,5.86-6.21,8.83
			c-3.42,4.96-6.71,10.02-10.22,14.91c-0.46,0.57-0.92,1.14-1.36,1.72c-0.66,0.89-1.4,1.8-1.98,2.77c0,0.01-0.01,0.01-0.01,0.02
			c0,0,0,0,0,0c-0.26,0.45-0.49,0.92-0.66,1.41c-0.85-0.4-1.7-0.66-2.49-0.75c-2.18-0.08-4.46,1.55-4.45,3.86
			c0.02,0.38,0.1,0.75,0.2,1.11c-1.22,0.1-2.3,0.71-2.92,1.66c-0.7-0.25-1.4-0.49-2.09-0.75c-1.98-0.78-4.2-0.96-5.88,0.1
			c-0.35-0.07-0.71-0.1-1.08-0.11c-1.93-1.41-4.06-2.47-6.44-2.63c-1.3,0.01-2.58,0.47-3.57,1.26c-0.02-0.06-0.04-0.12-0.06-0.18
			c-0.52-1.53-1.23-2.98-1.97-4.41c-1.81-3.36-3.63-6.91-6.72-9.27c-0.62-0.61-1.36-1.11-2.26-1.12c-2.34,0.12-3.17,2.7-1.93,4.5
			c0.25,0.36,0.51,0.71,0.76,1.06c-0.01,0.04-0.02,0.08-0.03,0.12c-0.3,0.03-0.59,0.1-0.87,0.18c-0.62-1.81-1.21-3.63-1.68-5.48
			c-0.23,1.44-0.23,3.7,0.01,6.37c-1.13,0.91-1.84,2.3-1.62,3.86c-0.29,0.82-0.34,1.71-0.23,2.59c-2.21-0.19-4.16,1.34-4.96,4.05
			c-0.06,0.25-0.09,0.51-0.12,0.76c-0.19,0.75-0.21,1.55,0.04,2.36c0.08,0.23,0.18,0.46,0.27,0.69c0.08,0.36,0.16,0.72,0.23,1.07
			c0.5,2.22,1.27,4.38,2.23,6.44c-0.3,0.52-0.51,1.08-0.63,1.67c-0.07,0.13-0.15,0.25-0.21,0.4c-0.54,1.16-0.11,2.55,0.42,3.64
			c0.49,0.8,1.18,1.41,1.92,1.96c0.27,0.31,0.54,0.61,0.82,0.91c-0.37,0.51-0.62,1.11-0.72,1.74c-2.63,4.89,6.25,11.65,9.24,14.89
			c1.2,1.43,2.87,1.93,4.34,1.65c0.75,1.95,2.3,3.6,3.56,5.27c4.67,4.62,10.87,7.25,16.6,10.3c2.36,1.33,4.73,2.64,7.1,3.94
			c0.05,0.34,0.13,0.67,0.28,0.98c0.76,1.89,2.86,2.86,4.63,3.61c4.78,1.98,9.76,3.36,14.82,4.33c1.3,0.4,2.6,0.76,3.89,1.11
			c2.12,0.6,4.25,1.14,6.4,1.65c0.61,0.1,1.22,0.31,1.84,0.44c0.46,0.31,0.98,0.56,1.58,0.73c7.51,1.84,15.26,2.45,22.98,2.37
			c2.59-0.02,5.18-0.06,7.77-0.12c0.7,0.03,1.35-0.12,1.95-0.44c1.13-0.38,1.96-1.2,2.48-2.2c1.98,0.03,3.97,0.02,5.95,0.01
			c1.16,0.12,2.32,0.2,3.49,0.26c0.79-0.04,1.51-0.33,2.1-0.85c0.52,0,1.05-0.03,1.57-0.1c1.36-0.2,2.47-1.31,2.81-2.56
			c0.69-0.05,1.29-0.12,1.65-0.17c0.27-0.06,0.52-0.23,0.69-0.45c1.05,0.19,2.11,0.3,3.16,0.42c2.69,0.11,5.62,0.32,8.13-0.79
			c2.09-1.09,3.08-3.79,2.01-5.82c0.61-0.11,1.21-0.25,1.81-0.44c6.41-2.16,11.02-7.11,14.91-12.48c0.11,0.06,0.22,0.11,0.35,0.13
			c2.28,0.2,4.81-2.14,5.39-4.25c0.2-0.9-0.08-1.76-0.62-2.42c1.65-1.92,3.19-3.93,4.67-5.81c-0.24,0.31-0.48,0.62-0.72,0.93
			c0.93-1.19,1.85-2.38,2.77-3.58c0.09,0.27,0.21,0.53,0.35,0.77c0.94,1.65,2.75,2.11,4.46,2.56c2.96,0.85,6.08,0.94,9.13,1.18
			c4.7,0.33,10.75,0.66,14.66,0.15c0.82,0.16,1.64,0.26,2.45,0.33c-0.26-0.03-0.65-0.09-0.87-0.13c5.26,0.76,10.61,0.04,15.9-0.16
			c2.61-0.15,5.22-0.33,7.83-0.52c1.56,0.03,2.98-0.91,3.71-2.24c1.77,0.01,3.54-0.05,5.31-0.14c2.02,0,4.03-0.09,6.04-0.28
			c0.08,0,0.17-0.01,0.25-0.01c2.65-0.32,5.54,0.01,8.04-0.97c1.97-0.68,3.56-2.76,3.69-4.83c0.11-0.52,0.1-1.03,0.05-1.54
			c0.25-0.14,0.5-0.28,0.75-0.42c0.05-0.02,0.1-0.04,0.14-0.07c1.07-0.48,2.23-1.07,3.4-1.68c0.5-0.1,1-0.21,1.49-0.34
			c1.89-0.69,3.58-1.81,5.32-2.78c0.18-0.12,0.38-0.24,0.58-0.35c1.28-0.42,2.8-0.97,4.38-1.6c0.34,0.26,0.72,0.47,1.14,0.58
			c2.34,0.57,4.24-1.37,6.01-2.61c3.76-2.77,6.63-6.52,9.17-10.4c1.06-1.69,1.28-3.98,0.51-5.8c0.9-1.16,1.76-2.34,2.61-3.53
			c0.72-0.99,1.41-2.08,1.84-3.2c0.36-0.08,0.72-0.22,1.03-0.46c1.59-1.2,2.04-3.15,2.21-5.13c0.18-0.44,0.34-0.89,0.48-1.35
			C423.01,293.35,423.04,292.49,422.53,291.94z"/>
	</g>
</g>
<path class="st2" d="M382.53,334.23c3.7,12.53,1.98,23.19,1.98,37.18"/>
<path class="st2" d="M268.33,387.35h-16.82c-9.88,0-17.89,8.01-17.89,17.89v0c0,9.29,7.53,16.82,16.82,16.82h17.89"/>
<path class="st2" d="M367.47,375.42c13.56-13.56,34.39,1.1,34.39,17.52c0,16.42-15.54,29.73-34.71,29.73"/>
<path class="st2" d="M337.26,234.42c0-36.82-91.91-20.11-140.59,42.06s-54.92,7.35-54.92,7.35s-48.66,38.43,26.39,79.49
	s136.22-0.06,136.22-36.75"/>
<path class="st2" d="M301.14,344.07c0,0,33.5,1.9,58.5-0.15c25-2.05,57.86-29.45,61.71-41.4c3.86-11.95,4.09-49.24-19.49-65.31
	c-23.58-16.07-68.47-4.59-68.47-4.59"/>
<path class="st2" d="M371.89,385.87c6.8-6.8,17.25,0.55,17.25,8.78c0,8.23-7.79,14.91-17.41,14.91"/>
<path class="st2" d="M271.16,498.58c-64.24,0.01-81.2-57.86-73.29-121.61"/>
<path class="st2" d="M376.03,421.69c-15.51,51.55-54.62,76.88-107.52,76.89"/>
<path class="st2" d="M233.62,451.56c0,0,22.76,24.64,44.19,0"/>
<circle cx="338.94" cy="352.82" r="2.85"/>
<circle cx="351.06" cy="355.04" r="2.85"/>
<circle cx="344.7" cy="365.03" r="2.85"/>
<circle cx="362.16" cy="352.19" r="2.85"/>
<circle cx="362.16" cy="362.36" r="2.85"/>
<circle cx="356.76" cy="371.54" r="2.85"/>
<circle cx="373.77" cy="355.04" r="2.85"/>
</svg>
